<mxfile host="app.diagrams.net" modified="2024-06-24T10:51:18.512Z" agent="Mozilla/5.0 (Windows NT 10.0; Win64; x64) AppleWebKit/537.36 (KHTML, like Gecko) Chrome/124.0.0.0 Safari/537.36" version="24.6.2" etag="4xw_p12RIDUC5JWDkK83" type="github">
  <diagram name="Page-1" id="VLU1LAnVwBCHh59rRAwc">
    <mxGraphModel>
      <root>
        <mxCell id="0" />
        <mxCell id="1" parent="0" />
      </root>
    </mxGraphModel>
  </diagram>
</mxfile>
